<svg xmlns="http://www.w3.org/2000/svg" viewBox="0 0 64 64" width="64" height="64">
  <!-- Fond dégradé piscine -->
  <defs>
    <radialGradient id="waterGradient" cx="50%" cy="30%" r="70%">
      <stop offset="0%" style="stop-color:#4FC3F7;stop-opacity:1" />
      <stop offset="50%" style="stop-color:#0288D1;stop-opacity:1" />
      <stop offset="100%" style="stop-color:#0277BD;stop-opacity:1" />
    </radialGradient>
    <linearGradient id="waveGradient" x1="0%" y1="0%" x2="100%" y2="0%">
      <stop offset="0%" style="stop-color:#26C6DA;stop-opacity:0.7" />
      <stop offset="50%" style="stop-color:#00ACC1;stop-opacity:0.9" />
      <stop offset="100%" style="stop-color:#26C6DA;stop-opacity:0.7" />
    </linearGradient>
  </defs>
  
  <!-- Forme de piscine -->
  <rect x="8" y="16" width="48" height="32" rx="16" ry="16" fill="url(#waterGradient)" stroke="#0277BD" stroke-width="2"/>
  
  <!-- Vagues d'eau -->
  <path d="M12 24 Q20 20 28 24 T44 24" stroke="url(#waveGradient)" stroke-width="2" fill="none" opacity="0.8"/>
  <path d="M16 32 Q24 28 32 32 T48 32" stroke="url(#waveGradient)" stroke-width="1.5" fill="none" opacity="0.6"/>
  <path d="M14 40 Q22 36 30 40 T46 40" stroke="url(#waveGradient)" stroke-width="1.5" fill="none" opacity="0.5"/>
  
  <!-- Indicateur de mesure (pH/température) -->
  <circle cx="20" cy="28" r="3" fill="#FFFFFF" opacity="0.9"/>
  <circle cx="20" cy="28" r="1.5" fill="#00C851"/>
  
  <circle cx="44" cy="36" r="3" fill="#FFFFFF" opacity="0.9"/>
  <circle cx="44" cy="36" r="1.5" fill="#FF8F00"/>
  
  <!-- Icône monitoring/dashboard -->
  <rect x="28" y="20" width="8" height="6" rx="1" fill="#FFFFFF" opacity="0.8"/>
  <rect x="29" y="22" width="2" height="2" fill="#0288D1"/>
  <rect x="32" y="22" width="2" height="2" fill="#00ACC1"/>
  <rect x="29" y="24" width="6" height="1" fill="#26C6DA"/>
</svg>